<?xml version="1.0" standalone="no"?>
<!DOCTYPE svg PUBLIC "-//W3C//DTD SVG 1.1//EN" "http://www.w3.org/Graphics/SVG/1.1/DTD/svg11.dtd" >
<svg xmlns="http://www.w3.org/2000/svg" xmlns:xlink="http://www.w3.org/1999/xlink" version="1.1">
<metadata></metadata>
<defs>
<font id="nimbussansnovustblack" horiz-adv-x="1269" >
<font-face units-per-em="2048" ascent="1638" descent="-410" />
<missing-glyph horiz-adv-x="512" />
<glyph horiz-adv-x="0" />
<glyph unicode="&#xd;" horiz-adv-x="512" />
<glyph unicode=" "  horiz-adv-x="512" />
<glyph unicode="&#x09;" horiz-adv-x="512" />
<glyph unicode="&#xa0;" horiz-adv-x="512" />
<glyph unicode="!" horiz-adv-x="718" d="M184 0v393h391v-393h-391zM184 1049v317h391v-309l-104 -563h-182z" />
<glyph unicode="&#x22;" horiz-adv-x="1101" d="M68 1366h432l-80 -549h-273zM604 1366h432l-80 -549h-272z" />
<glyph unicode="#" d="M111 408l26 194h195l20 152h-192l26 196h195l41 291h201l-41 -291h161l41 291h201l-41 -291h213l-27 -196h-215l-20 -152h215l-29 -194h-213l-45 -318h-200l43 318h-160l-45 -318h-201l45 318h-194zM532 602h162l21 152h-160z" />
<glyph unicode="$" d="M82 457h362q2 -182 205 -183q166 0 166 119q0 55 -37 79t-213 79q-262 84 -338 156q-94 90 -94 241q0 160 112.5 268.5t301.5 131.5v153h158v-153q408 -43 413 -420h-338v8q0 129 -162 129q-141 0 -141 -96q0 -49 37 -68q23 -10 102 -35q0 2 64 -16l31 -10l32 -9 q182 -45 279 -116q147 -109 147 -291q0 -127 -66.5 -228.5t-180.5 -154.5q-88 -37 -217 -49v-156h-158v158q-459 53 -465 463z" />
<glyph unicode="%" horiz-adv-x="1738" d="M61 991q0 166 88 260.5t244 94.5q160 0 247 -93.5t87 -265.5q0 -367 -332 -366q-160 0 -247 97t-87 273zM307 963q0 -104 16.5 -140.5t65.5 -36.5q53 0 71.5 45.5t18.5 178.5q0 94 -18.5 131t-65.5 37q-49 0 -68.5 -47.5t-19.5 -167.5zM416 0l717 1343h198l-717 -1343 h-198zM1010 340q0 168 87.5 263t241.5 95q162 0 250 -92t88 -260q0 -178 -87 -275.5t-247 -97.5q-334 0 -333 367zM1257 340q0 -115 17.5 -156t66.5 -41q88 0 89 195q0 94 -9 129q-16 65 -75 65q-88 0 -89 -192z" />
<glyph unicode="&#x26;" horiz-adv-x="1423" d="M61 393q0 127 79 233.5t218 166.5q-106 127 -106 254q0 145 120 245.5t296 100.5q170 0 284.5 -104.5t114.5 -260.5q0 -225 -225 -334l104 -129q35 39 55 107h314q-23 -186 -168 -332l289 -340h-451l-78 96l-53 -33q-141 -92 -311 -92q-219 0 -346 119q-135 127 -136 303 zM420 399q0 -49 39 -81.5t96 -32.5q86 -1 154 67l-158 191q-131 -63 -131 -144zM578 1053q0 -37 28 -78q14 -20 29 -37q8 -10 18 -20l9 -9q104 66 104 146q0 37 -27.5 61.5t-68.5 24.5q-39 0 -65.5 -25.5t-26.5 -62.5z" />
<glyph unicode="'" horiz-adv-x="565" d="M68 1366h432l-80 -549h-273z" />
<glyph unicode="(" horiz-adv-x="677" d="M61 506q0 305 80 561q18 61 80 209q25 61 45 90h330q-172 -387 -172 -844q0 -254 68 -516q49 -190 112 -325h-338q-78 152 -129 323q-76 252 -76 502z" />
<glyph unicode=")" horiz-adv-x="677" d="M76 1366h338q74 -141 129 -324q76 -250 75 -501q0 -305 -79 -561q-14 -47 -80 -209q-25 -59 -45 -90h-330q172 383 172 843q0 242 -70 516q-49 195 -110 326z" />
<glyph unicode="*" d="M227 995l68 203l235 -90l-6 258h219l-10 -258l236 90l71 -203l-243 -75l153 -203l-170 -129l-151 213l-148 -213l-172 129l162 203z" />
<glyph unicode="+" d="M117 537v258h391v391h258v-391h389v-258h-389v-390h-258v390h-391z" />
<glyph unicode="," horiz-adv-x="622" d="M117 0v393h391v-346q0 -215 -148 -321q-111 -80 -243 -80v176q154 33 166 178h-166z" />
<glyph unicode="-" horiz-adv-x="546" d="M0 346v326h547v-326h-547z" />
<glyph unicode="." horiz-adv-x="622" d="M117 0v395h391v-395h-391z" />
<glyph unicode="/" horiz-adv-x="946" d="M-49 -319l575 1685h359l-576 -1685h-358z" />
<glyph unicode="0" d="M68 664q0 307 156.5 494.5t412.5 187.5t411.5 -187.5t155.5 -494.5q0 -309 -154.5 -495.5t-412.5 -186.5t-413.5 186t-155.5 496zM430 647q0 -365 207 -364q205 0 205 383q0 378 -205 378q-207 0 -207 -397z" />
<glyph unicode="1" d="M227 762v280q104 2 162 19q209 59 229 268h320v-1329h-399v762h-312z" />
<glyph unicode="2" d="M55 0v25q0 166 88 290q66 94 211 201q90 68 269 172q104 61 140 101t36 94q0 133 -162 133q-160 0 -191 -154q-6 -35 -8 -92h-358q0 262 110 393q154 182 457 183q244 0 389.5 -117t145.5 -314q0 -121 -52.5 -206.5t-175.5 -169.5q-94 -66 -252 -154q-68 -37 -127 -80 q182 16 295 17h336v-322h-1151z" />
<glyph unicode="3" d="M53 465q0 20 2 37h361v-17q0 -188 207 -188q182 0 182 139t-205 139q-33 0 -84 -2v248q18 -2 64 -2q129 0 175 26.5t46 82.5q0 51 -46 83.5t-120 32.5q-182 1 -184 -157h-361q8 180 105 291q145 168 438 168q238 0 381 -104.5t143 -278.5q0 -100 -51 -167t-139 -81 q229 -49 229 -293q0 -205 -174 -332q-147 -109 -393 -108q-305 0 -455 157q-121 127 -121 326z" />
<glyph unicode="4" d="M55 289v350l598 690h379v-725h176v-315h-176v-289h-389v289h-588zM346 598q55 4 119 4h192v252q0 6 5 125q-66 -90 -115 -148l-68 -79q-39 -43 -133 -154z" />
<glyph unicode="5" d="M47 426h371q12 -141 196 -141q205 0 205 188q0 186 -203 186q-123 0 -176 -94h-348l133 764h901v-321h-610l-14 -80q-8 -45 -31 -113q119 98 285 98q207 0 325.5 -116.5t118.5 -317.5q0 -285 -231 -418q-135 -78 -353 -77q-268 0 -414.5 113.5t-154.5 328.5z" />
<glyph unicode="6" d="M78 631q0 315 147.5 515t452.5 200q428 0 506 -369h-353q-29 109 -149 108q-131 0 -190 -110q-33 -61 -48 -178q82 57 142.5 77.5t148.5 20.5q215 0 337 -111.5t122 -306.5q0 -248 -190 -387q-147 -109 -351 -108q-279 0 -438 192q-137 166 -137 457zM465 469 q0 -82 52 -134t134 -52q78 0 132.5 53t54.5 131q0 82 -53.5 135t-135.5 53q-78 0 -131 -53t-53 -133z" />
<glyph unicode="7" d="M115 989v338h1022v-309q-98 -104 -156 -191q-242 -356 -242 -804v-23h-422v14q0 137 63.5 342t158 368t221.5 273q-190 -8 -248 -8h-397z" />
<glyph unicode="8" d="M43 391q0 254 264 311q-207 57 -207 275q0 168 146.5 269.5t388.5 101.5q258 0 396 -107.5t138 -265.5q0 -219 -206 -273q262 -59 262 -309q0 -211 -201 -327q-143 -84 -389 -84q-289 0 -434 106q-158 117 -158 303zM416 416q0 -74 57 -116t160 -42q217 0 217 158 q0 72 -58.5 115.5t-154.5 43.5q-221 0 -221 -159zM430 942q0 -139 209 -139q92 0 146.5 39t54.5 104q0 141 -207 141q-203 0 -203 -145z" />
<glyph unicode="9" d="M72 852q0 217 152.5 355.5t391.5 138.5q279 0 439 -193q139 -166 139 -475q0 -295 -143 -492q-150 -205 -449 -204q-221 0 -355 95t-161 275h354q33 -119 170 -119q111 0 154 72q35 59 59 225q-94 -96 -276 -96q-229 0 -352 108.5t-123 309.5zM434 864q0 -82 53.5 -136 t135.5 -54q78 0 131 54t53 130q0 80 -53 133t-133 53t-133.5 -51t-53.5 -129z" />
<glyph unicode=":" horiz-adv-x="657" d="M150 0v395h391v-395h-391zM150 586v393h391v-393h-391z" />
<glyph unicode=";" horiz-adv-x="657" d="M150 0v393h391v-346q0 -215 -148 -321q-111 -80 -243 -80v176q154 33 165 178h-165zM150 586v393h391v-393h-391z" />
<glyph unicode="&#x3c;" horiz-adv-x="1024" d="M68 522v344l886 500v-412l-450 -262l448 -262l2 -410z" />
<glyph unicode="=" d="M117 346v252h1038v-252h-1038zM117 733v252h1038v-252h-1038z" />
<glyph unicode="&#x3e;" horiz-adv-x="1024" d="M68 20v414l450 260l-448 264l-2 408l886 -500v-344z" />
<glyph unicode="?" horiz-adv-x="1208" d="M96 911q12 231 151.5 359.5t381.5 128.5q240 0 373 -123t133 -289q0 -104 -48.5 -173t-164.5 -130q-106 -55 -130 -82t-24 -94v-19h-352q0 12 2 107q2 119 80 190q27 25 84 56q4 2 9 4t7 2l16 10l37 16q78 35 78 109q0 94 -108 94q-125 0 -127 -166h-398zM393 0v393h393 v-393h-393z" />
<glyph unicode="@" horiz-adv-x="1490" d="M57 684q0 299 210 508t509 209q274 0 465 -175t191 -425q0 -205 -142.5 -354.5t-337.5 -149.5q-84 0 -159 68q-94 -68 -183 -68q-115 0 -188.5 79t-73.5 199q0 170 122 305.5t275 135.5q78 0 164 -62l13 33h221l-158 -483q-14 -43 -14 -53q0 -16 37 -17q92 0 166.5 110.5 t74.5 246.5q0 178 -138 304t-333 126q-223 0 -376.5 -155t-153.5 -380q0 -229 156.5 -385t386.5 -156q143 0 274 65.5t213 180.5h195q-76 -152 -189 -244q-223 -182 -502 -182q-303 0 -514 209t-211 510zM584 518q0 -84 55 -84q86 0 143 168l41 121q18 55 19 82q0 66 -51 65 q-66 0 -127 -98q-31 -49 -55.5 -127t-24.5 -127z" />
<glyph unicode="A" horiz-adv-x="1394" d="M-14 0l503 1366h414l504 -1366h-426l-66 195h-440l-65 -195h-424zM567 487h256l-41 125q-27 84 -53 183q-8 35 -31 135q-18 -80 -94 -324z" />
<glyph unicode="B" horiz-adv-x="1415" d="M117 0v1366h686q203 0 311 -53q174 -86 174 -287q0 -180 -172 -274q8 -2 23 -9q215 -88 215 -327q0 -225 -180 -340q-119 -76 -345 -76h-712zM520 326h260q158 0 158 127q0 129 -160 129h-258v-256zM520 846h236q129 0 129 102q0 106 -148 107h-217v-209z" />
<glyph unicode="C" horiz-adv-x="1419" d="M59 682q0 311 192.5 515t489.5 204q303 0 488 -207q129 -143 141 -334h-407q-35 199 -220 199q-143 0 -208 -129q-53 -104 -54 -244q0 -174 70 -276.5t190 -102.5q191 1 222 232h415q-16 -258 -189 -416t-439 -158q-338 0 -529 234q-162 199 -162 483z" />
<glyph unicode="D" horiz-adv-x="1476" d="M117 0v1366h612q303 0 479 -160q211 -193 211 -518q0 -342 -194 -526q-170 -162 -504 -162h-604zM532 346h162q145 0 219 80q84 92 84 252q0 205 -137 293q-76 49 -207 49h-121v-674z" />
<glyph unicode="E" horiz-adv-x="1341" d="M117 0v1366h1132v-332h-717v-170h650v-317h-650v-201h736v-346h-1151z" />
<glyph unicode="F" horiz-adv-x="1206" d="M117 0v1366h1057v-346h-642v-211h553v-317h-553v-492h-415z" />
<glyph unicode="G" horiz-adv-x="1482" d="M59 670q0 328 191.5 529.5t503.5 201.5q242 0 412.5 -144.5t197.5 -369.5h-403q-39 172 -209 172q-141 0 -213 -117q-57 -94 -58 -280q0 -362 287 -363q195 0 233 160h-180v293h563v-752h-266l-14 141q-137 -176 -391 -176q-315 0 -496 228q-158 199 -158 477z" />
<glyph unicode="H" horiz-adv-x="1462" d="M117 0v1366h415v-473h400v473h416v-1366h-416v539h-400v-539h-415z" />
<glyph unicode="I" horiz-adv-x="649" d="M117 0v1366h415v-1366h-415z" />
<glyph unicode="J" horiz-adv-x="1112" d="M6 469v102h377q0 -158 12 -202q18 -70 101 -70q104 0 104 135v932h416v-911q0 -227 -113 -346q-135 -143 -391 -144q-244 0 -375 130t-131 374z" />
<glyph unicode="K" horiz-adv-x="1468" d="M117 0v1366h418v-276q0 -27 -5 -109q0 -29 -4 -100q16 20 146 182l243 303h519l-496 -532l573 -834h-522l-334 532l-123 -129v-403h-415z" />
<glyph unicode="L" horiz-adv-x="1202" d="M117 0v1366h415v-1012h611v-354h-1026z" />
<glyph unicode="M" horiz-adv-x="1814" d="M117 0v1366h600l90 -354q35 -135 76 -342q8 -41 30 -176q16 115 43 229q18 86 70 299l86 344h588v-1366h-393v205q0 23 2 104q2 117 2 203q0 59 6 297l2 65v37l2 35v37q-49 -215 -94 -383l-60 -227l-102 -373h-313l-99 358q-29 106 -80 299q-23 88 -79 326 q16 -373 16 -719v-264h-393z" />
<glyph unicode="N" horiz-adv-x="1464" d="M117 0v1366h413l295 -512q6 -10 60 -106q39 -70 76 -150q-2 20 -7 113l-4 84q-3 120 -4 120v-4v455h404v-1366h-400l-342 582q-12 23 -35 67q-14 29 -65 137q12 -184 12 -311v-475h-403z" />
<glyph unicode="O" horiz-adv-x="1501" d="M59 682q0 328 191.5 523.5t513.5 195.5q303 0 491.5 -198.5t188.5 -518.5q0 -326 -189.5 -522.5t-504.5 -196.5q-307 0 -499 198.5t-192 518.5zM481 680q0 -174 74 -273.5t203 -99.5q264 0 264 393q0 166 -70.5 262.5t-191.5 96.5q-133 0 -206 -98.5t-73 -280.5z" />
<glyph unicode="P" horiz-adv-x="1353" d="M117 0v1366h573q297 0 420 -82q197 -131 197 -395q0 -209 -133 -342q-125 -125 -381 -125h-261v-422h-415zM532 741h201q170 0 170 144q0 149 -176 149h-2h-193v-293z" />
<glyph unicode="Q" horiz-adv-x="1495" d="M59 688q0 307 198 510t497 203q301 0 492.5 -200t191.5 -515q0 -141 -45 -270t-119 -201l172 -176l-189 -189l-194 199q-127 -76 -318 -76q-352 0 -536 240q-150 195 -150 475zM481 688q0 -176 71 -282.5t187 -106.5q37 0 72 14l-121 119l184 184l119 -120q23 68 23 190 q0 373 -262 373q-129 0 -201 -97.5t-72 -273.5z" />
<glyph unicode="R" horiz-adv-x="1452" d="M117 0v1366h696q219 0 334 -66q190 -111 190 -337q0 -111 -54 -201t-146 -131q82 -27 135 -111q35 -55 53 -158q2 -18 14 -118l7 -47l4 -50q8 -109 26 -135l8 -12h-415q-8 27 -15 55q0 12 -8 74l-4 25l-4 51q-14 170 -65.5 223t-163.5 53h-177v-481h-415zM532 770h228 q174 0 174 141q0 137 -197 138h-205v-279z" />
<glyph unicode="S" horiz-adv-x="1294" d="M27 461h419q12 -178 216 -178q169 0 169 113q0 44 -47 70t-227 79q-291 86 -375 162q-102 92 -102 268q0 186 154.5 304t402.5 118q258 0 402.5 -117t146.5 -328h-393q0 131 -172 131q-137 0 -138 -84q0 -41 39 -59q29 -14 115 -37q12 -2 33 -8l69 -21l35 -8 q197 -47 307 -123q162 -113 162 -309q0 -213 -160.5 -339t-435.5 -126q-287 0 -452.5 131t-167.5 361z" />
<glyph unicode="T" horiz-adv-x="1251" d="M35 1012v354h1182v-354h-383v-1012h-416v1012h-383z" />
<glyph unicode="U" horiz-adv-x="1433" d="M96 559v807h416v-842q0 -217 215 -217q197 0 197 217v842h415v-811q0 -281 -127 -420q-156 -170 -497 -170q-371 0 -525 209q-94 129 -94 385z" />
<glyph unicode="V" horiz-adv-x="1271" d="M-14 1366h424l69 -244q70 -246 115 -458q25 -113 39 -246q12 78 45 256q41 188 113 446l67 246h428l-422 -1366h-471z" />
<glyph unicode="W" horiz-adv-x="1837" d="M-14 1366h411l70 -309q43 -190 68 -359q20 -135 32 -297q10 141 33 277q31 188 68 371l65 317h369l55 -272q43 -211 74 -389q20 -121 35 -304q14 158 41 312q37 219 77 407l54 246h411l-374 -1366h-406l-65 334q-53 274 -89 553q-10 -104 -26 -217q-6 -49 -23 -144 l-12 -63l-10 -62l-13 -63l-59 -338h-412z" />
<glyph unicode="X" horiz-adv-x="1394" d="M-35 0l496 725l-449 641h490l104 -180q55 -94 101 -201q12 23 43 88q25 53 47 92l112 201h465l-436 -641l492 -725h-508l-134 223q-55 94 -100 197q-20 -51 -48 -100.5t-60 -104.5l-129 -215h-486z" />
<glyph unicode="Y" horiz-adv-x="1280" d="M-55 1366h465l100 -217q49 -104 129 -299q14 41 55 139q57 127 88 191l92 186h459l-487 -872v-494h-416v502z" />
<glyph unicode="Z" horiz-adv-x="1300" d="M41 0v334l477 516q82 90 170 170q-51 -2 -133 -5t-119 -3h-360v354h1159v-311l-444 -484q-70 -76 -220 -225l144 4q104 4 151 4h394v-354h-1219z" />
<glyph unicode="[" horiz-adv-x="677" d="M68 -319v1685h534v-281h-217v-1128h217v-276h-534z" />
<glyph unicode="\" horiz-adv-x="946" d="M61 1366h359l575 -1685h-358z" />
<glyph unicode="]" horiz-adv-x="677" d="M76 -39h217v1129h-217v276h534v-1685h-534v280z" />
<glyph unicode="^" horiz-adv-x="1024" d="M6 682l277 694h456l277 -694h-359l-145 416l-145 -416h-361z" />
<glyph unicode="_" horiz-adv-x="1024" d="M0 -94h1024v-240h-1024v240z" />
<glyph unicode="`" horiz-adv-x="1024" d="M172 1419h363l155 -291h-217z" />
<glyph unicode="a" horiz-adv-x="1173" d="M39 276q0 203 194 271q76 27 265 53q113 16 131 21q29 4 45 16q31 20 31 63q0 86 -125 86q-70 0 -100.5 -21.5t-39.5 -78.5h-356q14 330 496 330q229 0 344 -62q86 -45 118.5 -110.5t32.5 -190.5v-22q0 -39 -2 -117q0 -4 -2 -131l-2 -98q0 -141 18 -217q7 -27 25 -68 h-385q-12 47 -14 92q-121 -119 -322 -119q-164 0 -258 81t-94 222zM426 291q0 -98 109 -98q121 0 159 94q13 32 13 104v60q-47 -29 -177 -58q-104 -23 -104 -102z" />
<glyph unicode="b" horiz-adv-x="1232" d="M102 0v1366h379v-483q113 135 285 135q188 0 302 -141.5t114 -372.5q0 -240 -119 -385.5t-313 -145.5q-172 0 -283 136v-109h-365zM469 502q0 -227 168 -228q166 0 166 228q0 227 -170 227q-76 0 -120 -60.5t-44 -166.5z" />
<glyph unicode="c" horiz-adv-x="1138" d="M47 487q0 236 149.5 382.5t393.5 146.5q213 0 353 -109.5t155 -290.5h-363q-20 127 -141 127q-168 0 -168 -260q0 -237 163 -237h1.5h1.5q126 0 151 151h363q-29 -201 -165 -312.5t-353 -111.5q-242 0 -391.5 142.5t-149.5 371.5z" />
<glyph unicode="d" horiz-adv-x="1230" d="M51 502q0 236 114 376t304 140q166 0 281 -135v483h378v-1366h-364v106q-100 -133 -277 -133q-199 0 -317.5 144.5t-118.5 384.5zM430 504q0 -229 166 -230q166 0 166 232q0 102 -44 162.5t-120 60.5q-168 0 -168 -225z" />
<glyph unicode="e" horiz-adv-x="1185" d="M47 485q0 205 129 355q152 176 424 176q244 0 391.5 -158t147.5 -418v-26h-729q12 -199 194 -199q107 0 160 82h354q-29 -94 -106 -174q-143 -150 -406 -150q-252 0 -405.5 140.5t-153.5 371.5zM412 604h356q-12 170 -174 170q-151 0 -182 -170z" />
<glyph unicode="f" horiz-adv-x="739" d="M-10 754v235h155v45q0 180 95.5 259t314.5 79q98 0 168 -4v-258q-16 0 -43 2h-37q-78 0 -102.5 -14.5t-24.5 -57.5v-51h201v-235h-193v-754h-379v754h-155z" />
<glyph unicode="g" horiz-adv-x="1216" d="M51 545q0 215 115 344t307 129q96 0 158.5 -33t118.5 -115v119h364v-850q0 -193 -70 -293q-125 -180 -442 -180q-313 0 -430 129q-72 78 -88 199h377q27 -90 143 -90q82 0 114 41t32 147v105q-104 -125 -279 -125q-197 0 -308.5 125t-111.5 348zM414 541q0 -205 170 -205 q174 0 174 205q0 92 -46 144t-128 52q-170 0 -170 -196z" />
<glyph unicode="h" horiz-adv-x="1234" d="M102 0v1366h379v-504q104 154 299 154q197 0 293 -131q66 -88 66 -267v-618h-379v545q0 94 -33 129q-39 41 -102 41q-78 0 -119 -70q-25 -41 -25 -139v-506h-379z" />
<glyph unicode="i" horiz-adv-x="583" d="M102 0v989h379v-989h-379zM102 1102v264h379v-264h-379z" />
<glyph unicode="j" horiz-adv-x="583" d="M-68 -18h29q72 0 93.5 6t34.5 29.5t13 58.5v913h379v-966q0 -201 -92 -277q-82 -68 -297 -68q-25 0 -160 5v299zM102 1102v264h379v-264h-379z" />
<glyph unicode="k" horiz-adv-x="1175" d="M102 0v1366h379v-512v-41q-2 -31 -2 -49v-27l-2 -26v-25q37 57 72 98l172 205h424l-352 -375l409 -614h-448l-207 362l-66 -63v-299h-379z" />
<glyph unicode="l" horiz-adv-x="583" d="M102 0v1366h379v-1366h-379z" />
<glyph unicode="m" horiz-adv-x="1828" d="M102 0v989h365v-127q111 156 309 156q199 0 281 -158q123 156 315 156q164 0 262.5 -99.5t98.5 -267.5v-649h-379v557q0 158 -121 158q-125 0 -125 -166v-549h-379v571q0 145 -117 146q-131 0 -131 -166v-551h-379z" />
<glyph unicode="n" horiz-adv-x="1234" d="M102 0v989h365v-123q127 150 313 150q195 0 291 -129q68 -90 68 -281v-606h-379v553q0 162 -129 162q-150 0 -150 -170v-545h-379z" />
<glyph unicode="o" horiz-adv-x="1179" d="M47 492q0 236 153.5 380t401.5 144q236 0 384.5 -145.5t148.5 -376.5q0 -227 -153 -374t-390 -147q-242 0 -393.5 144.5t-151.5 374.5zM426 494q0 -248 166 -248q164 0 164 248q0 117 -31 172q-43 77 -133 77q-166 0 -166 -249z" />
<glyph unicode="p" horiz-adv-x="1232" d="M102 -319v1308h365v-106q106 133 287 133q193 0 310.5 -145.5t117.5 -383.5q0 -236 -113 -376t-303 -140q-176 0 -285 135v-425h-379zM469 500q0 -227 166 -228q168 0 168 222q0 233 -168 233q-166 0 -166 -227z" />
<glyph unicode="q" horiz-adv-x="1232" d="M51 485q0 236 118 383.5t306 147.5q102 0 166 -29t125 -102v104h364v-1308h-378v425q-104 -135 -285 -135q-188 0 -302 140.5t-114 373.5zM430 500q0 -225 168 -226q166 0 166 222q0 231 -172 231q-162 0 -162 -227z" />
<glyph unicode="r" horiz-adv-x="858" d="M102 0v989h365v-153q98 180 283 180q38 -1 108 -15v-333q-77 28 -135 28h-4q-166 0 -219 -129q-18 -45 -19 -118v-449h-379z" />
<glyph unicode="s" horiz-adv-x="1067" d="M20 330h359q14 -117 147 -117q121 0 121 77v5q-2 37 -30.5 50t-161.5 42q-209 45 -289 90q-125 72 -125 232q0 145 124 226t347 81q293 0 412 -131q61 -68 69 -187h-344q-8 51 -36.5 72t-94.5 21q-106 0 -106 -60q0 -37 35.5 -52t183.5 -42q215 -39 302 -109.5t87 -205.5 q0 -162 -131 -255.5t-357 -93.5q-410 0 -491 244q-14 45 -21 113z" />
<glyph unicode="t" horiz-adv-x="763" d="M-18 754v235h163v305h379v-305h205v-235h-205v-353q0 -88 22.5 -111.5t104.5 -23.5q35 0 78 2v-274q-109 -8 -197 -8q-264 0 -346 129q-41 66 -41 215v424h-163z" />
<glyph unicode="u" horiz-adv-x="1228" d="M96 379v610h379v-510q0 -100 10 -131q25 -74 125 -74q74 0 106 49.5t32 161.5v504h378v-989h-364v125q-111 -152 -311 -152q-193 0 -291 136q-63 88 -64 270z" />
<glyph unicode="v" horiz-adv-x="1058" d="M-20 989h401l78 -291q27 -98 53 -223q8 -39 20 -141q12 90 33 174l41 166l88 315h385l-325 -989h-445z" />
<glyph unicode="w" horiz-adv-x="1648" d="M-20 989h393l71 -278q43 -168 74 -392q35 231 74 408l57 262h352l66 -289q39 -172 68 -376q27 195 69 368l74 297h391l-311 -989h-387l-84 324q-37 141 -64 356q-31 -221 -63 -356l-80 -324h-387z" />
<glyph unicode="x" horiz-adv-x="1032" d="M-41 0l348 522l-313 467h416l53 -90q4 -8 59 -121q35 86 62 133l43 78h405l-311 -467l352 -522h-416l-73 119q-23 37 -68 143q-37 -88 -72 -147l-67 -115h-418z" />
<glyph unicode="y" horiz-adv-x="1073" d="M-20 989h403l111 -391q27 -92 49 -231q27 150 53 241l109 381h389l-363 -1012q-76 -211 -211 -268q-66 -28 -144 -28h-5h-291v301h84q84 0 116.5 18t32.5 63q0 18 -10 48z" />
<glyph unicode="z" horiz-adv-x="1054" d="M47 0v289l275 243q109 96 208 177q-88 -6 -122 -7h-320v287h903v-289l-280 -260q-57 -53 -195 -161q113 8 168 8h348v-287h-985z" />
<glyph unicode="{" horiz-adv-x="815" d="M25 383v281q61 14 86 59q8 14 22 94l4 39v215q0 193 117 256q47 27 108.5 33t253.5 6h43v-281h-32q-119 0 -145.5 -21.5t-26.5 -119.5v-164q0 -125 -45 -188q-23 -31 -78 -68q70 -47 96.5 -103t26.5 -159v-160q0 -98 26.5 -119.5t145.5 -21.5h32v-280h-43q-119 0 -137 2 q-154 2 -200 22q-141 59 -142 268v215q0 94 -25.5 137.5t-86.5 57.5z" />
<glyph unicode="|" horiz-adv-x="1024" d="M303 -342v1708h418v-1708h-418z" />
<glyph unicode="}" horiz-adv-x="815" d="M156 -39h32q119 0 145.5 21.5t26.5 119.5v164q0 125 46 189q18 25 77 69q-70 45 -96.5 101.5t-26.5 158.5v160q0 98 -26.5 119.5t-145.5 21.5h-32v281h43q119 0 137 -2q154 -2 201 -23q141 -59 141 -268v-215q0 -94 25.5 -137t87.5 -57v-281q-61 -14 -86 -59 q-8 -14 -23 -95l-4 -39v-215q0 -193 -117 -256q-47 -27 -108.5 -32.5t-253.5 -5.5h-43v280z" />
<glyph unicode="~" horiz-adv-x="1366" d="M188 1255q121 315 326 316q49 0 137 -31q33 -10 158 -57q37 -14 63 -15q61 0 117 109l197 -168q-66 -162 -133 -231q-82 -84 -193 -84q-59 0 -227 63q-104 39 -137 39q-56 0 -111 -109z" />
<glyph unicode="&#xa1;" horiz-adv-x="720" d="M143 -63l105 561h184l105 -555v-318h-394v312zM143 596v393h394v-393h-394z" />
<glyph unicode="&#xa2;" d="M141 680q0 203 120 340t327 170v176h157v-176q170 -27 267 -107q131 -111 143 -286h-350q-14 141 -135 141q-94 0 -138 -96q-29 -66 -28 -156q0 -115 45 -180.5t123 -65.5q129 0 133 160h358q-41 -373 -418 -428v-199h-157v199q-207 27 -327 163t-120 345z" />
<glyph unicode="&#xa3;" d="M125 178l65 49q135 100 136 234q0 35 -13 86h-186v225h102q-68 90 -67 207q0 176 138 277.5t376 101.5q467 0 485 -467h-350q-4 4 -8 49q-2 53 -38 85t-93 32q-119 0 -119 -103q0 -35 16 -71q-2 2 19 -39l12 -27l14 -29q2 -2 7 -16h243v-225h-182q6 -33 6 -51 q0 -123 -104 -201q16 2 34 8q55 12 99 12q31 0 108 -16q49 -10 88 -10q96 0 162 94l146 -264q-123 -143 -334 -144q-59 0 -162 21l-31 6l-28 6l-29 8q-86 25 -162 25q-102 0 -207 -74z" />
<glyph unicode="&#xa4;" horiz-adv-x="1501" d="M55 219l217 217q-61 123 -61 260q0 125 70 260l-224 222l211 213l230 -228q125 61 254 62q125 0 252 -60l225 221l209 -208l-217 -217q74 -133 73 -267q0 -131 -63 -256l217 -217l-209 -211l-215 215q-133 -74 -276 -73q-125 0 -267 71l-217 -213zM547 696 q0 -88 60.5 -149.5t146.5 -61.5t146.5 61.5t60.5 149.5q0 84 -61.5 145.5t-145.5 61.5q-86 0 -146.5 -60.5t-60.5 -146.5z" />
<glyph unicode="&#xa5;" d="M33 1329h407l95 -221q63 -139 100 -260q45 133 135 332l68 149h399l-238 -489h183v-178h-271l-82 -168v-43h299v-179h-299v-272h-389v272h-299v179h299v51l-80 160h-272v178h184z" />
<glyph unicode="&#xa6;" horiz-adv-x="1024" d="M303 313h418v-655h-418v655zM303 618v748h418v-748h-418z" />
<glyph unicode="&#xa7;" d="M80 578q0 201 207 272q-74 76 -74 184q0 145 124 239.5t314 94.5q193 0 313 -101.5t126 -271.5h-316q-4 109 -119 109q-94 0 -94 -78q0 -33 23.5 -52.5t105.5 -53.5q0 -2 58 -25l53 -21l162 -67q225 -94 225 -287q0 -209 -193 -270q96 -88 97 -207q0 -164 -124 -263 t-327 -99q-217 0 -340 98t-123 272v25h314q2 -6 2 -15q18 -109 137 -108q113 0 112 88q0 49 -38 76q-16 12 -52 24l-43 17l-45 16l-43 19q-78 31 -192 77q-137 59 -193.5 130t-56.5 178zM393 618q0 -33 23.5 -51t118.5 -57q43 -18 67 -29q43 -18 129 -53q25 -10 82 -29 q66 12 66 66q0 35 -24 54.5t-103 49.5q-18 6 -88 37l-19 8l-31 15l-30 12l-33 12q-27 12 -92 33q-66 -10 -66 -68z" />
<glyph unicode="&#xa8;" horiz-adv-x="1024" d="M137 1139v264h324v-264h-324zM565 1139v264h324v-264h-324z" />
<glyph unicode="&#xa9;" horiz-adv-x="1544" d="M59 684q0 299 210 508t509 209q291 0 500 -211t209 -506q0 -297 -208 -508t-501 -211q-299 0 -509 210t-210 509zM244 684q0 -227 155.5 -388t378.5 -161q217 0 371 161t154 388q0 225 -154 386t-371 161q-223 0 -378.5 -160t-155.5 -387zM385 688q0 180 109.5 295 t283.5 115q145 0 245.5 -85t106.5 -216h-180q-29 94 -168 94q-156 0 -155 -203q0 -201 155 -201q152 0 170 119h185q-12 -152 -108.5 -238.5t-252.5 -86.5q-176 0 -283.5 112.5t-107.5 294.5z" />
<glyph unicode="&#xaa;" horiz-adv-x="845" d="M78 559v137h692v-137h-692zM106 973q0 115 115 151q53 16 152 29q80 10 97 17.5t17 33.5q0 51 -67 51q-76 0 -86 -63h-201q6 188 287 188q139 0 213 -43t74 -161v-11v-14q-2 -14 -2 -47q-2 -86 -3 -72v-63q0 -91 27 -150h-229q-2 12 -8 45q-68 -59 -181 -59 q-94 0 -149.5 45t-55.5 123zM330 983q0 -55 63 -55q94 0 94 102v37q-12 -8 -98 -29q-59 -12 -59 -55z" />
<glyph unicode="&#xab;" horiz-adv-x="862" d="M76 340v342l307 242v-289l-147 -119l147 -123v-299zM453 336v346l307 244v-295l-148 -121l148 -115v-303z" />
<glyph unicode="&#xac;" horiz-adv-x="1024" d="M68 252v362h886v-614h-403v252h-483z" />
<glyph unicode="&#xad;" horiz-adv-x="546" d="M0 346v326h547v-326h-547z" />
<glyph unicode="&#xae;" horiz-adv-x="1544" d="M59 684q0 299 210 508t509 209q291 0 500 -211t209 -506q0 -297 -208 -508t-501 -211q-299 0 -509 210t-210 509zM244 684q0 -229 155.5 -389t378.5 -160q217 0 371 161t154 388q0 225 -154 386t-371 161q-223 0 -378.5 -160t-155.5 -387zM475 305v782h334q119 0 182 -34 q109 -59 109 -185q0 -139 -123 -192q90 -37 104 -164q0 8 6 -92q4 -63 19 -115h-225q-14 33 -19 109q-8 123 -39.5 158.5t-83.5 35.5h-24v-303h-240zM715 741h47q100 0 100 109q0 94 -92 94h-55v-203z" />
<glyph unicode="&#xb0;" horiz-adv-x="819" d="M102 1096q0 127 91.5 218t218.5 91q131 0 218 -89t87 -222q0 -131 -89 -222.5t-218 -91.5t-218.5 91.5t-89.5 224.5zM217 1087q0 -76 56.5 -133t129.5 -57q84 0 140.5 55.5t56.5 137.5q0 84 -55 141t-137 57q-80 0 -135.5 -58.5t-55.5 -142.5z" />
<glyph unicode="&#xb1;" horiz-adv-x="1124" d="M20 741v113h486v502h112v-502h486v-113h-486v-477h-112v477h-486zM23 0v113h1073v-113h-1073z" />
<glyph unicode="&#xb2;" horiz-adv-x="860" d="M49 547v18q0 141 135 250q74 59 236 146q113 59 112 112q0 76 -104 76q-117 0 -123 -145h-239q0 164 73 241q102 109 299 109q160 0 255 -70t95 -188q0 -78 -39.5 -130.5t-140.5 -109.5q-20 -12 -96 -51q-6 -2 -20.5 -9.5t-71.5 -35.5q-4 -2 -41 -23q123 8 203 8h223 v-198h-756z" />
<glyph unicode="&#xb3;" horiz-adv-x="858" d="M49 834q0 6 2 20h242v-10q0 -113 131 -113q115 0 115 80q0 78 -129 78h-60v153h58q127 0 127 62q0 66 -105 65q-113 0 -115 -96h-241q12 281 356 281q156 0 250 -63.5t94 -168.5q0 -109 -106 -147q133 -33 133 -172q0 -123 -115 -201q-96 -66 -258 -65 q-180 0 -279.5 77.5t-99.5 219.5z" />
<glyph unicode="&#xb4;" horiz-adv-x="1024" d="M336 1128l156 291h362l-301 -291h-217z" />
<glyph unicode="&#xb5;" horiz-adv-x="1179" d="M68 -307q0 51 10 94l12 49l12 49q25 98 25 156v983h180v-678q0 -106 49.5 -166.5t137.5 -60.5q127 0 229 149v756h182v-756q0 -82 28 -133t73 -51q37 0 66.5 41t33.5 98l55 -2q-45 -248 -246 -248q-92 0 -143 70q-29 39 -47 121q-162 -190 -317 -191q-88 0 -201 95 q0 -90 24 -177q39 -135 39 -188q0 -152 -102 -152q-43 0 -71.5 41t-28.5 101z" />
<glyph unicode="&#xb6;" d="M102 1010q0 133 74 223t193 119q66 14 206 14h551v-145h-96v-1540h-190v1540h-158v-1540h-190v983q-8 -2 -21 -2q-166 0 -267.5 96t-101.5 252z" />
<glyph unicode="&#xb8;" horiz-adv-x="1024" d="M254 -381l39 90q106 -39 166 -39q98 0 98 68q0 70 -84 69q-29 0 -72 -18l-47 43l99 168h102l-68 -121q49 12 86 12q72 0 122 -42t50 -101q0 -82 -65.5 -131t-173.5 -49q-121 0 -252 51z" />
<glyph unicode="&#xb9;" horiz-adv-x="860" d="M162 997v174q133 6 194 52q53 39 62 120h215v-796h-268v450h-203z" />
<glyph unicode="&#xba;" horiz-adv-x="845" d="M78 559v137h692v-137h-692zM111 1090q0 131 88 210.5t231 79.5q135 0 221 -80.5t86 -209.5q0 -125 -88 -206t-225 -81q-139 0 -226 80t-87 207zM336 1092q0 -131 90 -131q88 0 88 131t-90 131q-88 0 -88 -131z" />
<glyph unicode="&#xbb;" horiz-adv-x="862" d="M102 96v287l150 123l-150 117v301l308 -244v-340zM479 92v291l152 121l-152 125v299l309 -248v-344z" />
<glyph unicode="&#xbc;" horiz-adv-x="2000" d="M162 997v174q133 6 194 52q53 39 62 120h215v-796h-268v450h-203zM543 0l719 1343h196l-717 -1343h-198zM1190 172v213l391 412h252v-430h115v-195h-115v-172h-256v172h-387zM1378 356h211v230z" />
<glyph unicode="&#xbd;" horiz-adv-x="2000" d="M162 997v174q133 6 194 52q53 39 62 120h215v-796h-268v450h-203zM543 0l719 1343h196l-717 -1343h-198zM1192 0v18q0 143 135 252q70 57 236 146q113 61 112 112q0 76 -104 76q-117 0 -123 -147h-240q0 164 74 241q102 109 299 109q160 0 255 -69.5t95 -188.5 q0 -78 -40 -131t-140 -109q-8 -4 -96 -51l-70 -35l-12 -6l-10 -4q-2 0 -41 -23q123 8 202 9h224v-199h-756z" />
<glyph unicode="&#xbe;" horiz-adv-x="2000" d="M49 834q0 6 2 20h242v-10q0 -113 131 -113q115 0 115 80q0 78 -129 78h-60v153h58q127 0 127 62q0 66 -105 65q-113 0 -115 -96h-241q12 281 356 281q156 0 250 -63.5t94 -168.5q0 -109 -106 -147q133 -33 133 -172q0 -123 -115 -201q-96 -66 -258 -65 q-180 0 -279.5 77.5t-99.5 219.5zM543 0l717 1343h198l-717 -1343h-198zM1190 172v213l391 412h252v-430h115v-195h-115v-172h-256v172h-387zM1378 356h211v230z" />
<glyph unicode="&#xbf;" horiz-adv-x="1206" d="M61 8q0 102 47.5 168t167.5 127q100 53 126 86t28 111h348q2 -16 2 -35q0 -166 -65 -246q-31 -37 -84 -63q-4 -2 -83 -39t-79 -105q0 -100 109 -100q127 0 127 154v14h393q-8 -229 -149.5 -358.5t-385.5 -129.5q-236 0 -373 129q-129 121 -129 287zM414 596v393h389v-393 h-389z" />
<glyph unicode="&#xc0;" horiz-adv-x="1394" d="M-14 0l503 1366h414l504 -1366h-426l-66 195h-440l-65 -195h-424zM285 1763h397l195 -276h-263zM567 487h256l-41 125q-27 84 -53 183q-8 35 -31 135q-18 -80 -94 -324z" />
<glyph unicode="&#xc1;" horiz-adv-x="1394" d="M-14 0l503 1366h414l504 -1366h-426l-66 195h-440l-65 -195h-424zM522 1487l191 276h403l-342 -276h-252zM567 487h256l-41 125q-27 84 -53 183q-8 35 -31 135q-18 -80 -94 -324z" />
<glyph unicode="&#xc2;" horiz-adv-x="1394" d="M-14 0l503 1366h414l504 -1366h-426l-66 195h-440l-65 -195h-424zM303 1487l229 276h334l224 -276h-283l-113 145l-112 -145h-279zM567 487h256l-41 125q-27 84 -53 183q-8 35 -31 135q-18 -80 -94 -324z" />
<glyph unicode="&#xc3;" horiz-adv-x="1394" d="M-14 0l503 1366h414l504 -1366h-426l-66 195h-440l-65 -195h-424zM326 1485q14 121 82.5 198.5t162.5 77.5q55 0 134 -28l22 -9l25 -10l22 -10q37 -16 72 -16q76 -1 88 71h147q-37 -264 -250 -264q-37 0 -98 14q-12 4 -94 37q-45 18 -80 19q-72 0 -84 -80h-149zM567 487 h256l-41 125q-27 84 -53 183q-8 35 -31 135q-18 -80 -94 -324z" />
<glyph unicode="&#xc4;" horiz-adv-x="1394" d="M-14 0l503 1366h414l504 -1366h-426l-66 195h-440l-65 -195h-424zM309 1501v252h336v-252h-336zM567 487h256l-41 125q-27 84 -53 183q-8 35 -31 135q-18 -80 -94 -324zM748 1501v252h335v-252h-335z" />
<glyph unicode="&#xc5;" horiz-adv-x="1394" d="M-14 0l503 1366h414l504 -1366h-426l-66 195h-440l-65 -195h-424zM430 1665q0 90 77.5 153.5t188.5 63.5t189 -63.5t78 -153.5t-78 -153.5t-189 -63.5t-188.5 63.5t-77.5 153.5zM567 487h256l-41 125q-27 84 -53 183q-8 35 -31 135q-18 -80 -94 -324zM594 1665 q0 -43 29.5 -72.5t72.5 -29.5t73 29.5t30 72.5t-30 72.5t-73 29.5t-72.5 -29.5t-29.5 -72.5z" />
<glyph unicode="&#xc6;" horiz-adv-x="2004" d="M-41 0l627 1366h1323v-332h-619v-170h578v-317h-578v-201h639v-346h-1042v190h-406l-80 -190h-442zM600 483h287v551h-56z" />
<glyph unicode="&#xc7;" horiz-adv-x="1419" d="M59 686q0 309 196 512t493 203q307 0 489 -217q106 -127 135 -326h-416q-25 201 -219 201q-119 0 -187.5 -99.5t-68.5 -273.5q0 -176 71 -277.5t191 -101.5q189 1 220 232h415q-20 -242 -172 -396q-174 -176 -469 -176l-55 -90q49 12 84 12q76 0 125 -39.5t49 -103.5 q0 -82 -66.5 -130t-181.5 -48t-246 51l43 92q96 -41 173 -41q90 0 90 66q0 70 -95 69q-29 0 -61 -16l-49 45l82 139q-227 29 -377 189q-193 205 -193 524z" />
<glyph unicode="&#xc8;" horiz-adv-x="1341" d="M117 0v1366h1132v-332h-717v-170h650v-317h-650v-201h736v-346h-1151zM299 1763h399l195 -276h-262z" />
<glyph unicode="&#xc9;" horiz-adv-x="1341" d="M117 0v1366h1132v-332h-717v-170h650v-317h-650v-201h736v-346h-1151zM498 1487l190 276h404l-342 -276h-252z" />
<glyph unicode="&#xca;" horiz-adv-x="1341" d="M117 0v1366h1132v-332h-717v-170h650v-317h-650v-201h736v-346h-1151zM293 1487l227 276h334l223 -276h-280l-115 145l-111 -145h-278z" />
<glyph unicode="&#xcb;" horiz-adv-x="1341" d="M117 0v1366h1132v-332h-717v-170h650v-317h-650v-201h736v-346h-1151zM297 1501v252h336v-252h-336zM737 1501v252h336v-252h-336z" />
<glyph unicode="&#xcc;" horiz-adv-x="649" d="M-96 1763h399l180 -276h-262zM115 0v1366h415v-1366h-415z" />
<glyph unicode="&#xcd;" horiz-adv-x="649" d="M117 0v1366h415v-1366h-415zM166 1487l174 276h403l-327 -276h-250z" />
<glyph unicode="&#xce;" horiz-adv-x="649" d="M-47 1487l207 276h334l202 -276h-280l-94 145l-91 -145h-278zM117 0v1366h415v-1366h-415z" />
<glyph unicode="&#xcf;" horiz-adv-x="649" d="M-25 1501v252h299v-252h-299zM115 0v1366h415v-1366h-415zM373 1501v252h299v-252h-299z" />
<glyph unicode="&#xd0;" horiz-adv-x="1476" d="M-6 606v211h123v549h612q305 0 481 -160q209 -190 209 -518q0 -342 -194 -526q-170 -162 -504 -162h-604v606h-123zM532 346h162q147 0 219 80q84 92 84 250q0 207 -137 295q-76 49 -205 49h-123v-203h228v-211h-228v-260z" />
<glyph unicode="&#xd1;" horiz-adv-x="1464" d="M117 0v1366h413l295 -512q6 -10 60 -106q39 -70 76 -150q-2 20 -7 113l-4 84q-4 143 -4 116v455h404v-1366h-400l-342 582q-12 23 -35 67q-14 29 -65 137q12 -184 12 -311v-475h-403zM369 1485q16 121 83.5 198.5t161.5 77.5q47 0 134 -28l24 -9l45 -20q37 -16 74 -16 q74 -1 86 71h147q-35 -264 -247 -264q-39 0 -101 14q-12 4 -94 37q-45 18 -80 19q-68 0 -84 -80h-149z" />
<glyph unicode="&#xd2;" horiz-adv-x="1501" d="M59 682q0 328 191.5 523.5t513.5 195.5q303 0 491.5 -198.5t188.5 -518.5q0 -326 -189.5 -522.5t-504.5 -196.5q-307 0 -499 198.5t-192 518.5zM367 1763h399l195 -276h-263zM481 680q0 -174 74 -273.5t203 -99.5q264 0 264 393q0 166 -70.5 262.5t-191.5 96.5 q-133 0 -206 -98.5t-73 -280.5z" />
<glyph unicode="&#xd3;" horiz-adv-x="1501" d="M59 682q0 328 191.5 523.5t513.5 195.5q303 0 491.5 -198.5t188.5 -518.5q0 -326 -189.5 -522.5t-504.5 -196.5q-307 0 -499 198.5t-192 518.5zM481 680q0 -174 74 -273.5t203 -99.5q264 0 264 393q0 166 -70.5 262.5t-191.5 96.5q-133 0 -206 -98.5t-73 -280.5z M571 1487l189 276h403l-340 -276h-252z" />
<glyph unicode="&#xd4;" horiz-adv-x="1501" d="M59 682q0 328 191.5 523.5t513.5 195.5q303 0 491.5 -198.5t188.5 -518.5q0 -326 -189.5 -522.5t-504.5 -196.5q-307 0 -499 198.5t-192 518.5zM358 1487l230 276h334l223 -276h-283l-112 145l-113 -145h-279zM481 680q0 -174 74 -273.5t203 -99.5q264 0 264 393 q0 166 -70.5 262.5t-191.5 96.5q-133 0 -206 -98.5t-73 -280.5z" />
<glyph unicode="&#xd5;" horiz-adv-x="1501" d="M59 682q0 328 191.5 523.5t513.5 195.5q303 0 491.5 -198.5t188.5 -518.5q0 -326 -189.5 -522.5t-504.5 -196.5q-307 0 -499 198.5t-192 518.5zM387 1485q16 121 84 198.5t162 77.5q47 0 133 -28l25 -9l45 -20q37 -16 73 -16q74 -1 86 71h148q-35 -264 -248 -264 q-39 0 -100 14q-12 4 -95 37q-45 18 -79 19q-68 0 -84 -80h-150zM481 680q0 -174 74 -273.5t203 -99.5q264 0 264 393q0 166 -70.5 262.5t-191.5 96.5q-133 0 -206 -98.5t-73 -280.5z" />
<glyph unicode="&#xd6;" horiz-adv-x="1501" d="M59 682q0 328 191.5 523.5t513.5 195.5q303 0 491.5 -198.5t188.5 -518.5q0 -326 -189.5 -522.5t-504.5 -196.5q-307 0 -499 198.5t-192 518.5zM365 1501v252h335v-252h-335zM481 680q0 -174 74 -273.5t203 -99.5q264 0 264 393q0 166 -70.5 262.5t-191.5 96.5 q-133 0 -206 -98.5t-73 -280.5zM803 1501v252h336v-252h-336z" />
<glyph unicode="&#xd7;" d="M147 360l306 306l-306 305l183 182l305 -305l305 305l182 -182l-305 -305l305 -306l-182 -182l-305 305l-305 -305z" />
<glyph unicode="&#xd8;" horiz-adv-x="1501" d="M55 29l158 178q-154 197 -154 477q0 322 190.5 519.5t498.5 197.5q258 0 423 -125l156 172l121 -111l-158 -176q154 -193 154 -491q0 -319 -203 -520q-186 -184 -483 -185q-225 0 -424 129l-158 -176zM481 709q1 -107 19 -183l426 475q-61 66 -162 66q-131 0 -207 -96.5 t-76 -261.5zM580 367q59 -68 182 -68q260 0 260 403q0 74 -14 144z" />
<glyph unicode="&#xd9;" horiz-adv-x="1433" d="M96 559v807h416v-842q0 -217 215 -217q197 0 197 217v842h415v-811q0 -281 -127 -420q-156 -170 -497 -170q-371 0 -525 209q-94 129 -94 385zM326 1763h399l195 -276h-263z" />
<glyph unicode="&#xda;" horiz-adv-x="1433" d="M96 559v807h416v-842q0 -217 215 -217q197 0 197 217v842h415v-811q0 -281 -127 -420q-156 -170 -497 -170q-371 0 -525 209q-94 129 -94 385zM530 1487l189 276h403l-340 -276h-252z" />
<glyph unicode="&#xdb;" horiz-adv-x="1433" d="M96 559v807h416v-842q0 -217 215 -217q197 0 197 217v842h415v-811q0 -281 -127 -420q-156 -170 -497 -170q-371 0 -525 209q-94 129 -94 385zM326 1487l227 276h334l223 -276h-281l-114 145l-111 -145h-278z" />
<glyph unicode="&#xdc;" horiz-adv-x="1433" d="M96 559v807h416v-842q0 -217 215 -217q197 0 197 217v842h415v-811q0 -281 -127 -420q-156 -170 -497 -170q-371 0 -525 209q-94 129 -94 385zM330 1501v252h336v-252h-336zM770 1501v252h336v-252h-336z" />
<glyph unicode="&#xdd;" horiz-adv-x="1280" d="M-55 1366h465l100 -217q49 -104 129 -299q14 41 55 139q57 127 88 191l92 186h459l-487 -872v-494h-416v502zM465 1487l190 276h404l-342 -276h-252z" />
<glyph unicode="&#xde;" horiz-adv-x="1361" d="M117 0v1366h415v-192h158q295 0 420 -84q197 -131 197 -394q0 -207 -133 -340q-125 -125 -381 -125h-261v-231h-415zM532 551h201q170 0 170 141q0 145 -178 146h-193v-287z" />
<glyph unicode="&#xdf;" horiz-adv-x="1218" d="M102 0v850q0 219 76 332q135 203 447 202q209 0 341 -104t132 -270q0 -168 -160 -258q109 -29 172.5 -118t63.5 -216q0 -207 -148 -336q-111 -96 -295 -96q-65 0 -174 14v289q43 -6 80 -6q70 0 115 48t45 126q0 102 -76 151q-41 27 -143 27h-21v215q18 -2 39 -2 q143 0 143 125q0 117 -131 117q-127 0 -127 -166v-924h-379z" />
<glyph unicode="&#xe0;" horiz-adv-x="1173" d="M39 276q0 203 194 271q76 27 265 53q113 16 131 21q29 4 45 16q31 20 31 63q0 86 -125 86q-70 0 -100.5 -21.5t-39.5 -78.5h-356q14 330 496 330q229 0 344 -62q86 -45 118.5 -110.5t32.5 -190.5v-22q0 -39 -2 -117q0 -4 -2 -131l-2 -98q0 -141 18 -217q7 -27 25 -68 h-385q-12 47 -14 92q-121 -119 -322 -119q-164 0 -258 81t-94 222zM246 1419h362l156 -291h-217zM426 291q0 -98 109 -98q121 0 159 94q13 32 13 104v60q-47 -29 -177 -58q-104 -23 -104 -102z" />
<glyph unicode="&#xe1;" horiz-adv-x="1173" d="M39 276q0 203 194 271q76 27 265 53q113 16 131 21q29 4 45 16q31 20 31 63q0 86 -125 86q-70 0 -100.5 -21.5t-39.5 -78.5h-356q14 330 496 330q229 0 344 -62q86 -45 118.5 -110.5t32.5 -190.5v-22q0 -39 -2 -117q0 -4 -2 -131l-2 -98q0 -141 18 -217q7 -27 25 -68 h-385q-12 47 -14 92q-121 -119 -322 -119q-164 0 -258 81t-94 222zM424 1128l156 291h362l-301 -291h-217zM426 291q0 -98 109 -98q121 0 159 94q13 32 13 104v60q-47 -29 -177 -58q-104 -23 -104 -102z" />
<glyph unicode="&#xe2;" horiz-adv-x="1173" d="M39 276q0 203 194 271q76 27 265 53q113 16 131 21q29 4 45 16q31 20 31 63q0 86 -125 86q-70 0 -100.5 -21.5t-39.5 -78.5h-356q14 330 496 330q229 0 344 -62q86 -45 118.5 -110.5t32.5 -190.5v-22q0 -39 -2 -117q0 -4 -2 -131l-2 -98q0 -141 18 -217q7 -27 25 -68 h-385q-12 47 -14 92q-121 -119 -322 -119q-164 0 -258 81t-94 222zM231 1128l207 291h301l203 -291h-264l-94 146l-90 -146h-263zM426 291q0 -98 109 -98q121 0 159 94q13 32 13 104v60q-47 -29 -177 -58q-104 -23 -104 -102z" />
<glyph unicode="&#xe3;" horiz-adv-x="1173" d="M39 276q0 203 194 271q76 27 265 53q113 16 131 21q29 4 45 16q31 20 31 63q0 86 -125 86q-70 0 -100.5 -21.5t-39.5 -78.5h-356q14 330 496 330q229 0 344 -62q86 -45 118.5 -110.5t32.5 -190.5v-22q0 -39 -2 -117q0 -4 -2 -131l-2 -98q0 -141 18 -217q7 -27 25 -68 h-385q-12 47 -14 92q-121 -119 -322 -119q-164 0 -258 81t-94 222zM242 1153q18 123 78.5 193.5t148.5 70.5q47 0 119 -28l20 -9l41 -20q33 -16 66 -17q47 0 76 72h139q-41 -252 -228 -252q-63 0 -176 51q-41 18 -71 19q-49 0 -74 -80h-139zM426 291q0 -98 109 -98 q121 0 159 94q13 32 13 104v60q-47 -29 -177 -58q-104 -23 -104 -102z" />
<glyph unicode="&#xe4;" horiz-adv-x="1173" d="M39 276q0 203 194 271q76 27 265 53q113 16 131 21q29 4 45 16q31 20 31 63q0 86 -125 86q-70 0 -100.5 -21.5t-39.5 -78.5h-356q14 330 496 330q229 0 344 -62q86 -45 118.5 -110.5t32.5 -190.5v-22q0 -39 -2 -117q0 -4 -2 -131l-2 -98q0 -141 18 -217q7 -27 25 -68 h-385q-12 47 -14 92q-121 -119 -322 -119q-164 0 -258 81t-94 222zM211 1139v264h324v-264h-324zM426 291q0 -98 109 -98q121 0 159 94q13 32 13 104v60q-47 -29 -177 -58q-104 -23 -104 -102zM639 1139v264h324v-264h-324z" />
<glyph unicode="&#xe5;" horiz-adv-x="1173" d="M39 276q0 203 194 271q76 27 265 53q113 16 131 21q29 4 45 16q31 20 31 63q0 86 -125 86q-70 0 -100.5 -21.5t-39.5 -78.5h-356q14 330 496 330q229 0 344 -62q86 -45 118.5 -110.5t32.5 -190.5v-22q0 -39 -2 -117q0 -4 -2 -131l-2 -98q0 -141 18 -217q7 -27 25 -68 h-385q-12 47 -14 92q-121 -119 -322 -119q-164 0 -258 81t-94 222zM328 1294q0 88 76 149.5t182 61.5t182 -61.5t76 -149.5t-76 -149.5t-182 -61.5t-182 61.5t-76 149.5zM426 291q0 -98 109 -98q121 0 159 94q13 32 13 104v60q-47 -29 -177 -58q-104 -23 -104 -102z M483 1294q0 -43 30 -72.5t73 -29.5t72.5 29.5t29.5 72.5t-29.5 73t-72.5 30t-73 -30t-30 -73z" />
<glyph unicode="&#xe6;" horiz-adv-x="1802" d="M39 276q0 186 164 261q76 33 327 69q127 18 152 31q39 20 39 63q0 88 -137 88q-121 0 -138 -102h-362q10 332 485 332q242 0 355 -111q115 109 303 109q209 0 356 -131q172 -154 172 -436q0 -8 -2 -35h-706q6 -199 184 -199q98 0 149 90h355q-41 -147 -175.5 -239.5 t-308.5 -92.5q-254 0 -387 133q-176 -133 -440 -133q-385 0 -385 303zM426 291q0 -102 121 -103q176 0 176 193v72q-18 -14 -72 -35l-26 -6q-8 -2 -62 -15q-72 -14 -94 -26q-43 -27 -43 -80zM1047 604h339q-18 168 -169 168q-154 0 -170 -168z" />
<glyph unicode="&#xe7;" horiz-adv-x="1138" d="M47 487q0 238 152.5 383.5t402.5 145.5q252 0 397 -164q80 -90 101 -236h-369q-23 127 -139 127q-166 0 -166 -260q0 -238 170 -237q131 -1 143 153h367q-16 -129 -91 -230t-186 -149q-84 -37 -227 -45l-53 -96q49 12 86 12q72 0 122 -42t50 -101q0 -82 -66.5 -131 t-175.5 -49q-119 0 -250 51l39 90q106 -39 166 -39q98 0 98 68q0 70 -83 69q-29 0 -72 -18l-49 43l86 143q-143 25 -221 72q-231 139 -232 440z" />
<glyph unicode="&#xe8;" horiz-adv-x="1185" d="M47 485q0 205 129 355q152 176 424 176q244 0 391.5 -158t147.5 -418v-26h-729q12 -199 194 -199q107 0 160 82h354q-29 -94 -106 -174q-143 -150 -406 -150q-252 0 -405.5 140.5t-153.5 371.5zM252 1419h362l156 -291h-217zM412 604h356q-12 170 -174 170 q-151 0 -182 -170z" />
<glyph unicode="&#xe9;" horiz-adv-x="1185" d="M47 485q0 205 129 355q152 176 424 176q244 0 391.5 -158t147.5 -418v-26h-729q12 -199 194 -199q107 0 160 82h354q-29 -94 -106 -174q-143 -150 -406 -150q-252 0 -405.5 140.5t-153.5 371.5zM412 604h356q-12 170 -174 170q-151 0 -182 -170zM430 1128l156 291h362 l-301 -291h-217z" />
<glyph unicode="&#xea;" horiz-adv-x="1185" d="M47 485q0 205 129 355q152 176 424 176q244 0 391.5 -158t147.5 -418v-26h-729q12 -199 194 -199q107 0 160 82h354q-29 -94 -106 -174q-143 -150 -406 -150q-252 0 -405.5 140.5t-153.5 371.5zM238 1128l206 291h301l203 -291h-264l-94 146l-90 -146h-262zM412 604h356 q-12 170 -174 170q-151 0 -182 -170z" />
<glyph unicode="&#xeb;" horiz-adv-x="1185" d="M47 485q0 205 129 355q152 176 424 176q244 0 391.5 -158t147.5 -418v-26h-729q12 -199 194 -199q107 0 160 82h354q-29 -94 -106 -174q-143 -150 -406 -150q-252 0 -405.5 140.5t-153.5 371.5zM217 1139v264h324v-264h-324zM412 604h356q-12 170 -174 170 q-151 0 -182 -170zM645 1139v264h324v-264h-324z" />
<glyph unicode="&#xec;" horiz-adv-x="583" d="M-55 1419h348l156 -291h-218zM102 0v989h379v-989h-379z" />
<glyph unicode="&#xed;" horiz-adv-x="583" d="M102 0v989h379v-989h-379zM141 1128l156 291h348l-287 -291h-217z" />
<glyph unicode="&#xee;" horiz-adv-x="583" d="M-51 1128l194 291h299l191 -291h-252l-92 146l-92 -146h-248zM102 0v989h379v-989h-379z" />
<glyph unicode="&#xef;" horiz-adv-x="583" d="M-43 1139v264h289v-264h-289zM102 0v989h379v-989h-379zM336 1139v264h289v-264h-289z" />
<glyph unicode="&#xf0;" horiz-adv-x="1179" d="M45 492q0 166 83 296t226 187q100 41 228 43l-66 104l-149 -65l-58 127l140 61l-82 117l221 92l92 -108l151 63l68 -127l-131 -55l188 -258q66 -90 115 -193q61 -129 62 -266q0 -244 -147.5 -391.5t-389.5 -147.5q-246 0 -398.5 144.5t-152.5 376.5zM426 494 q0 -248 166 -248q162 0 162 248q0 117 -31 172q-43 77 -133 77q-164 0 -164 -249z" />
<glyph unicode="&#xf1;" horiz-adv-x="1234" d="M102 0v989h365v-123q127 150 313 150q195 0 291 -129q68 -90 68 -281v-606h-379v553q0 162 -129 162q-150 0 -150 -170v-545h-379zM276 1153q18 123 79 193.5t149 70.5q47 0 119 -28l20 -9l41 -20q33 -16 66 -17q46 0 75 72h140q-41 -252 -228 -252q-63 0 -176 51 q-41 18 -72 19q-49 0 -73 -80h-140z" />
<glyph unicode="&#xf2;" horiz-adv-x="1179" d="M47 492q0 236 153.5 380t401.5 144q236 0 384.5 -145.5t148.5 -376.5q0 -227 -153 -374t-390 -147q-242 0 -393.5 144.5t-151.5 374.5zM250 1419h362l156 -291h-217zM426 494q0 -248 166 -248q164 0 164 248q0 117 -31 172q-43 77 -133 77q-166 0 -166 -249z" />
<glyph unicode="&#xf3;" horiz-adv-x="1179" d="M47 492q0 236 153.5 380t401.5 144q236 0 384.5 -145.5t148.5 -376.5q0 -227 -153 -374t-390 -147q-242 0 -393.5 144.5t-151.5 374.5zM426 494q0 -248 166 -248q164 0 164 248q0 117 -31 172q-43 77 -133 77q-166 0 -166 -249zM440 1128l156 291h362l-301 -291h-217z " />
<glyph unicode="&#xf4;" horiz-adv-x="1179" d="M47 492q0 236 153.5 380t401.5 144q236 0 384.5 -145.5t148.5 -376.5q0 -227 -153 -374t-390 -147q-242 0 -393.5 144.5t-151.5 374.5zM236 1128l206 291h301l203 -291h-264l-94 146l-90 -146h-262zM426 494q0 -248 166 -248q164 0 164 248q0 117 -31 172q-43 77 -133 77 q-166 0 -166 -249z" />
<glyph unicode="&#xf5;" horiz-adv-x="1179" d="M47 492q0 236 153.5 380t401.5 144q236 0 384.5 -145.5t148.5 -376.5q0 -227 -153 -374t-390 -147q-242 0 -393.5 144.5t-151.5 374.5zM260 1153q18 123 78.5 193.5t148.5 70.5q47 0 119 -28l21 -9l41 -20q33 -16 65 -17q47 0 76 72h139q-41 -252 -227 -252 q-63 0 -176 51q-41 18 -72 19q-49 0 -74 -80h-139zM426 494q0 -248 166 -248q164 0 164 248q0 117 -31 172q-43 77 -133 77q-166 0 -166 -249z" />
<glyph unicode="&#xf6;" horiz-adv-x="1179" d="M47 492q0 236 153.5 380t401.5 144q236 0 384.5 -145.5t148.5 -376.5q0 -227 -153 -374t-390 -147q-242 0 -393.5 144.5t-151.5 374.5zM215 1139v264h324v-264h-324zM426 494q0 -248 166 -248q164 0 164 248q0 117 -31 172q-43 77 -133 77q-166 0 -166 -249zM643 1139 v264h324v-264h-324z" />
<glyph unicode="&#xf7;" horiz-adv-x="1124" d="M20 477v113h1078v-113h-1078zM432 119q0 53 38 90t89 37q53 0 90 -37t37 -90q0 -51 -37 -89t-90 -38q-51 0 -89 38t-38 89zM432 936q0 53 38 90t89 37q53 0 90 -37t37 -90q0 -51 -37 -89t-90 -38q-51 0 -89 38t-38 89z" />
<glyph unicode="&#xf8;" horiz-adv-x="1179" d="M47 487q0 225 152.5 377t382.5 152q174 0 301 -84l106 129l101 -86l-107 -125q152 -158 152 -358q0 -227 -152 -373t-387 -146q-178 0 -303 76l-113 -129l-96 84l111 127q-147 154 -148 356zM410 487q0 -36 12 -104l274 334q-49 51 -110 51q-82 0 -129 -75t-47 -206z M481 266q45 -45 111 -45q82 0 131 69.5t49 182.5q0 70 -14 125z" />
<glyph unicode="&#xf9;" horiz-adv-x="1228" d="M96 379v610h379v-510q0 -100 10 -131q25 -74 125 -74q74 0 106 49.5t32 161.5v504h378v-989h-364v125q-111 -152 -311 -152q-193 0 -291 136q-63 88 -64 270zM260 1419h363l155 -291h-217z" />
<glyph unicode="&#xfa;" horiz-adv-x="1228" d="M96 379v610h379v-510q0 -100 10 -131q25 -74 125 -74q74 0 106 49.5t32 161.5v504h378v-989h-364v125q-111 -152 -311 -152q-193 0 -291 136q-63 88 -64 270zM453 1128l155 291h363l-301 -291h-217z" />
<glyph unicode="&#xfb;" horiz-adv-x="1228" d="M96 379v610h379v-510q0 -100 10 -131q25 -74 125 -74q74 0 106 49.5t32 161.5v504h378v-989h-364v125q-111 -152 -311 -152q-193 0 -291 136q-63 88 -64 270zM252 1128l207 291h301l203 -291h-265l-94 146l-90 -146h-262z" />
<glyph unicode="&#xfc;" horiz-adv-x="1228" d="M96 379v610h379v-510q0 -100 10 -131q25 -74 125 -74q74 0 106 49.5t32 161.5v504h378v-989h-364v125q-111 -152 -311 -152q-193 0 -291 136q-63 88 -64 270zM231 1139v264h324v-264h-324zM659 1139v264h324v-264h-324z" />
<glyph unicode="&#xfd;" horiz-adv-x="1073" d="M-20 989h403l111 -391q27 -92 49 -231q27 150 53 241l109 381h389l-363 -1012q-76 -211 -211 -268q-68 -29 -149 -28h-291v301h84q84 0 116.5 18t32.5 63q0 18 -10 48zM387 1128l156 291h362l-301 -291h-217z" />
<glyph unicode="&#xfe;" horiz-adv-x="1230" d="M102 -319v1685h379v-485q94 135 279 135q186 0 303 -146.5t117 -382.5t-113 -376t-303 -140q-178 0 -283 135v-425h-379zM471 500q0 -225 164 -226q166 0 166 222q0 231 -166 231q-164 0 -164 -227z" />
<glyph unicode="&#xff;" horiz-adv-x="1073" d="M-20 989h403l111 -391q27 -92 49 -231q27 150 53 241l109 381h389l-363 -1012q-76 -211 -211 -268q-68 -29 -149 -28h-291v301h84q84 0 116.5 18t32.5 63q0 18 -10 48zM162 1139v264h323v-264h-323zM590 1139v264h323v-264h-323z" />
<glyph unicode="&#x152;" horiz-adv-x="2144" d="M59 668q0 317 185.5 523t472.5 206q203 0 297 -107v76h1038v-332h-647v-170h590v-317h-590v-201h666v-346h-1057v68q-100 -98 -314 -99q-276 0 -458.5 200t-182.5 499zM481 686q0 -174 73 -274.5t200 -100.5q119 0 189.5 98.5t70.5 262.5v33q0 162 -71 256t-189 94 q-127 0 -200 -99.5t-73 -269.5z" />
<glyph unicode="&#x153;" horiz-adv-x="1851" d="M47 494q0 233 150.5 377.5t394.5 144.5q238 0 344 -125q139 125 340 125q285 0 428 -205q100 -141 102 -397h-723q18 -197 197 -197q92 0 158 94h360q-47 -139 -149 -221q-143 -117 -369 -117q-119 0 -196.5 28t-161.5 99q-121 -127 -357 -127q-256 0 -397 168 q-121 143 -121 353zM426 502q0 -256 164 -256q168 0 168 250q0 247 -158 247q-82 0 -128 -64.5t-46 -176.5zM1081 604h353q-18 170 -170 170q-158 0 -183 -170z" />
<glyph unicode="&#x178;" horiz-adv-x="1280" d="M-55 1366h465l100 -217q49 -104 129 -299q14 41 55 139q57 127 88 191l92 186h459l-487 -872v-494h-416v502zM252 1501v252h336v-252h-336zM690 1501v252h336v-252h-336z" />
<glyph unicode="&#x2c6;" horiz-adv-x="1024" d="M156 1128l206 291h302l202 -291h-264l-94 146l-90 -146h-262z" />
<glyph unicode="&#x2dc;" horiz-adv-x="1024" d="M168 1153q18 123 78.5 193.5t148.5 70.5q47 0 119 -28l21 -9l40 -20q33 -16 66 -17q47 0 76 72h139q-41 -252 -227 -252q-63 0 -176 51q-41 18 -72 19q-49 0 -74 -80h-139z" />
<glyph unicode="&#x2000;" horiz-adv-x="941" />
<glyph unicode="&#x2001;" horiz-adv-x="1882" />
<glyph unicode="&#x2002;" horiz-adv-x="941" />
<glyph unicode="&#x2003;" horiz-adv-x="1882" />
<glyph unicode="&#x2004;" horiz-adv-x="627" />
<glyph unicode="&#x2005;" horiz-adv-x="470" />
<glyph unicode="&#x2006;" horiz-adv-x="313" />
<glyph unicode="&#x2007;" horiz-adv-x="313" />
<glyph unicode="&#x2008;" horiz-adv-x="235" />
<glyph unicode="&#x2009;" horiz-adv-x="376" />
<glyph unicode="&#x200a;" horiz-adv-x="104" />
<glyph unicode="&#x2010;" horiz-adv-x="546" d="M0 346v326h547v-326h-547z" />
<glyph unicode="&#x2011;" horiz-adv-x="546" d="M0 346v326h547v-326h-547z" />
<glyph unicode="&#x2012;" horiz-adv-x="546" d="M0 346v326h547v-326h-547z" />
<glyph unicode="&#x2013;" d="M92 348v324h1084v-324h-1084z" />
<glyph unicode="&#x2014;" horiz-adv-x="1630" d="M0 348v322h1630v-322h-1630z" />
<glyph unicode="&#x2018;" horiz-adv-x="622" d="M117 641v313q0 231 131 340q104 86 260 92v-176q-154 -23 -164 -178h164v-391h-391z" />
<glyph unicode="&#x2019;" horiz-adv-x="622" d="M117 621v176q154 23 164 178h-164v391h391v-315q0 -229 -131 -338q-104 -86 -260 -92z" />
<glyph unicode="&#x201a;" horiz-adv-x="622" d="M117 0v391h391v-315q0 -229 -131 -338q-104 -86 -260 -92v176q154 23 164 178h-164z" />
<glyph unicode="&#x201c;" horiz-adv-x="1038" d="M117 647v322q0 209 106 313q86 86 236 104v-163q-141 -27 -154 -185h154v-391h-342zM580 647v322q0 209 106 313q86 86 236 104v-163q-141 -27 -154 -185h154v-391h-342z" />
<glyph unicode="&#x201d;" horiz-adv-x="1038" d="M117 627v164q141 27 153 184h-153v391h342v-322q0 -209 -107 -313q-86 -86 -235 -104zM580 627v164q141 27 153 184h-153v391h342v-322q0 -209 -107 -313q-86 -86 -235 -104z" />
<glyph unicode="&#x201e;" horiz-adv-x="1038" d="M117 0v391h342v-321q0 -209 -107 -314q-86 -86 -235 -104v164q141 27 153 184h-153zM580 0v391h342v-321q0 -209 -107 -314q-86 -86 -235 -104v164q141 27 153 184h-153z" />
<glyph unicode="&#x2022;" horiz-adv-x="1366" d="M401 694q0 117 84 200t203 83q115 0 198 -83t83 -200t-83 -200.5t-198 -83.5q-119 0 -203 82.5t-84 201.5z" />
<glyph unicode="&#x2026;" horiz-adv-x="1867" d="M117 0v395h391v-395h-391zM739 0v395h391v-395h-391zM1362 0v395h391v-395h-391z" />
<glyph unicode="&#x202f;" horiz-adv-x="376" />
<glyph unicode="&#x2039;" horiz-adv-x="485" d="M76 340v338l309 246v-293l-147 -119l147 -119v-299z" />
<glyph unicode="&#x203a;" horiz-adv-x="487" d="M102 94v287l150 125l-150 121v299l310 -246v-344z" />
<glyph unicode="&#x205f;" horiz-adv-x="470" />
<glyph unicode="&#x2122;" horiz-adv-x="1935" d="M20 1159v207h744v-207h-238v-571h-268v571h-238zM842 588v778h383l55 -203q31 -113 47 -192q8 -31 14 -70q18 94 66 268l53 197h373v-778h-246v522q-10 -41 -45 -176q-23 -84 -39 -133l-67 -213h-195l-65 205q-8 25 -31 102q-18 66 -55 213v-520h-248z" />
<glyph unicode="&#x25fc;" horiz-adv-x="993" d="M0 0v993h993v-993h-993z" />
</font>
</defs>
</svg>
